<?xml version="1.0" encoding="iso-8859-1"?>
<!-- Generator: Adobe Illustrator 19.0.0, SVG Export Plug-In . SVG Version: 6.00 Build 0)  -->
<svg version="1.1" id="Layer_1" xmlns="http://www.w3.org/2000/svg" xmlns:xlink="http://www.w3.org/1999/xlink" x="0px" y="0px"
	 viewBox="0 0 495 495" style="enable-background:new 0 0 495 495;" xml:space="preserve">
<g>
	<circle style="fill:none;" cx="247.5" cy="77.5" r="20"/>
	<polygon style="fill:#FFEB99;" points="247.5,375 247.5,312.5 70,312.5 70,495 148.75,495 148.75,375 188.75,375 188.75,495 
		227.5,495 227.5,375 	"/>
	<polygon style="fill:#FFC477;" points="247.5,375 267.5,375 267.5,495 306.25,495 306.25,375 346.25,375 346.25,495 425,495 
		425,312.5 247.5,312.5 	"/>
	<rect x="148.75" y="375" style="fill:#FFC477;" width="40" height="120"/>
	<rect x="227.5" y="375" style="fill:#EE8700;" width="40" height="120"/>
	<rect x="306.25" y="375" style="fill:#EE8700;" width="40" height="120"/>
	<path style="fill:#CC7400;" d="M365,182.5h-40v-105C325,34.766,290.233,0,247.5,0v57.5c11.046,0,20,8.954,20,20
		c0,11.046-8.954,20-20,20v215H425v-70C425,209.416,398.084,182.5,365,182.5z"/>
	<path style="fill:#EE8700;" d="M247.5,97.5c-11.046,0-20-8.954-20-20c0-11.046,8.954-20,20-20V0C204.767,0,170,34.766,170,77.5v105
		h-40c-33.084,0-60,26.916-60,60v70h177.5V97.5z"/>
</g>
<g>
</g>
<g>
</g>
<g>
</g>
<g>
</g>
<g>
</g>
<g>
</g>
<g>
</g>
<g>
</g>
<g>
</g>
<g>
</g>
<g>
</g>
<g>
</g>
<g>
</g>
<g>
</g>
<g>
</g>
</svg>
