<?xml version="1.0" encoding="iso-8859-1"?>
<!-- Generator: Adobe Illustrator 19.0.0, SVG Export Plug-In . SVG Version: 6.00 Build 0)  -->
<svg version="1.1" id="Layer_1" xmlns="http://www.w3.org/2000/svg" xmlns:xlink="http://www.w3.org/1999/xlink" x="0px" y="0px"
	 viewBox="0 0 483.989 483.989" style="enable-background:new 0 0 483.989 483.989;" xml:space="preserve">
<g>
	<polygon style="fill:#A258CD;" points="441.562,42.427 399.135,0 203.64,195.496 288.493,280.349 246.066,237.923 	"/>
	<polygon style="fill:#8034AD;" points="441.562,42.427 441.562,42.427 246.066,237.923 288.493,280.349 483.988,84.854 	"/>
	
		<rect x="125.963" y="213.027" transform="matrix(-0.7071 -0.7071 0.7071 -0.7071 106.721 640.2592)" style="fill:#FFDE55;" width="120" height="169.999"/>
	
		<rect x="33.683" y="242.671" transform="matrix(0.7071 0.7071 -0.7071 0.7071 202.9247 35.4393)" style="fill:#FFEB99;" width="50" height="40.001"/>
	
		<rect x="196.318" y="405.306" transform="matrix(-0.7071 -0.7071 0.7071 -0.7071 77.0801 882.5391)" style="fill:#FFEB99;" width="50" height="39.999"/>
	<rect x="0.001" y="323.989" style="fill:#FFEB99;" width="50" height="40"/>
	<rect x="120.001" y="433.989" style="fill:#FFEB99;" width="40" height="50"/>
	
		<rect x="38.684" y="400.306" transform="matrix(-0.7071 -0.7071 0.7071 -0.7071 -200.5639 767.5335)" style="fill:#FFEB99;" width="39.999" height="50"/>
</g>
<g>
</g>
<g>
</g>
<g>
</g>
<g>
</g>
<g>
</g>
<g>
</g>
<g>
</g>
<g>
</g>
<g>
</g>
<g>
</g>
<g>
</g>
<g>
</g>
<g>
</g>
<g>
</g>
<g>
</g>
</svg>
