<?xml version="1.0" encoding="iso-8859-1"?>
<!-- Generator: Adobe Illustrator 19.0.0, SVG Export Plug-In . SVG Version: 6.00 Build 0)  -->
<svg version="1.1" id="Layer_1" xmlns="http://www.w3.org/2000/svg" xmlns:xlink="http://www.w3.org/1999/xlink" x="0px" y="0px"
	 viewBox="0 0 495 495" style="enable-background:new 0 0 495 495;" xml:space="preserve">
<g>
	<path style="fill:#FFDE55;" d="M212.5,415c-27.57,0-50-22.43-50-50V218.881c-28.349-7.871-52.857-19.596-71.545-34.307
		C65.797,164.768,52.5,140.71,52.5,115v250c0,36.509,21.526,70.146,60.613,94.714C149.313,482.469,197.039,495,247.5,495v-94.338
		C238.474,409.522,226.117,415,212.5,415z"/>
	<path style="fill:#FFC477;" d="M382.5,198.8V295c0,27.57-22.43,50-50,50s-50-22.43-50-50v-66.791
		c-6.605,0.684-13.278,1.173-20,1.465V365c0,13.953-5.751,26.583-15,35.662V495c50.461,0,98.188-12.531,134.387-35.286
		C420.974,435.146,442.5,401.509,442.5,365V115C442.5,147.39,420.806,177.448,382.5,198.8z"/>
	<path style="fill:#A258CD;" d="M90.955,184.574c18.688,14.711,43.196,26.436,71.545,34.307V365c0,27.57,22.43,50,50,50
		c13.617,0,25.974-5.478,35-14.338c9.249-9.079,15-21.709,15-35.662V229.675c6.722-0.292,13.395-0.781,20-1.465V295
		c0,27.57,22.43,50,50,50s50-22.43,50-50v-96.2c38.306-21.352,60-51.411,60-83.8c0-33.049-21.917-63.148-61.714-84.752
		C344.854,10.742,297.519,0,247.5,0s-97.354,10.742-133.286,30.248C74.417,51.852,52.5,81.951,52.5,115
		C52.5,140.71,65.797,164.768,90.955,184.574z M247.5,77.5c53.871,0,97.543,16.789,97.543,37.5s-43.671,37.5-97.543,37.5
		c-53.871,0-97.543-16.789-97.543-37.5S193.629,77.5,247.5,77.5z"/>
	<ellipse style="fill:#8034AD;" cx="247.5" cy="115" rx="97.543" ry="37.5"/>
</g>
<g>
</g>
<g>
</g>
<g>
</g>
<g>
</g>
<g>
</g>
<g>
</g>
<g>
</g>
<g>
</g>
<g>
</g>
<g>
</g>
<g>
</g>
<g>
</g>
<g>
</g>
<g>
</g>
<g>
</g>
</svg>
