<?xml version="1.0" encoding="iso-8859-1"?>
<!-- Generator: Adobe Illustrator 19.0.0, SVG Export Plug-In . SVG Version: 6.00 Build 0)  -->
<svg version="1.1" id="Layer_1" xmlns="http://www.w3.org/2000/svg" xmlns:xlink="http://www.w3.org/1999/xlink" x="0px" y="0px"
	 viewBox="0 0 495 495" style="enable-background:new 0 0 495 495;" xml:space="preserve">
<g>
	<path style="fill:#EE8700;" d="M72.491,72.491C25.745,119.238,0,181.39,0,247.5c0,66.109,25.745,128.262,72.491,175.009
		S181.391,495,247.5,495V0C181.391,0,119.238,25.745,72.491,72.491z M110,287.5c-22.056,0-40-17.944-40-40s17.944-40,40-40
		s40,17.944,40,40S132.056,287.5,110,287.5z M198.75,163.063c-6.077,3.508-12.986,5.362-19.981,5.362
		c-14.255,0-27.537-7.665-34.66-20.004c-11.028-19.101-4.46-43.612,14.641-54.64c6.076-3.508,12.986-5.363,19.981-5.363
		c14.256,0,27.537,7.665,34.66,20.004C224.419,127.522,217.851,152.035,198.75,163.063z"/>
	<path style="fill:#CC7400;" d="M422.509,72.491C375.763,25.745,313.609,0,247.5,0v495H293c36.117,0,65.5-29.383,65.5-65.5
		c0-36.116-29.383-65.499-65.5-65.5c-14.061,0-25.5-11.439-25.5-25.5c0-14.061,11.439-25.5,25.5-25.5h136.5
		c36.117,0,65.5-29.383,65.5-65.5C495,181.39,469.256,119.238,422.509,72.491z M350.891,148.422
		c-7.123,12.338-20.403,20.003-34.659,20.003c-6.996,0-13.905-1.854-19.981-5.362c-9.253-5.343-15.871-13.968-18.637-24.289
		c-2.766-10.321-1.347-21.101,3.996-30.354c7.123-12.338,20.403-20.003,34.659-20.003c6.996,0,13.905,1.854,19.981,5.363
		c9.253,5.342,15.871,13.968,18.637,24.288C357.652,128.389,356.233,139.169,350.891,148.422z"/>
	<path style="fill:#D80027;" d="M110,207.5c-22.056,0-40,17.944-40,40s17.944,40,40,40s40-17.944,40-40S132.056,207.5,110,207.5z"/>
	<path style="fill:#FFEB99;" d="M336.25,93.781c-6.076-3.508-12.985-5.363-19.981-5.363c-14.256,0-27.536,7.665-34.659,20.003
		c-5.343,9.253-6.762,20.033-3.996,30.354c2.766,10.32,9.384,18.946,18.637,24.289c6.076,3.508,12.985,5.362,19.981,5.362
		c14.256,0,27.536-7.665,34.659-20.003c5.343-9.253,6.762-20.033,3.996-30.354C352.121,107.749,345.503,99.123,336.25,93.781z"/>
	<path style="fill:#FFDE55;" d="M178.731,88.418c-6.996,0-13.905,1.854-19.981,5.363c-19.101,11.028-25.669,35.54-14.641,54.64
		c7.123,12.339,20.404,20.004,34.66,20.004c6.996,0,13.905-1.854,19.981-5.362c19.101-11.028,25.669-35.54,14.641-54.641
		C206.268,96.083,192.987,88.418,178.731,88.418z"/>
</g>
<g>
</g>
<g>
</g>
<g>
</g>
<g>
</g>
<g>
</g>
<g>
</g>
<g>
</g>
<g>
</g>
<g>
</g>
<g>
</g>
<g>
</g>
<g>
</g>
<g>
</g>
<g>
</g>
<g>
</g>
</svg>
