<?xml version="1.0" encoding="iso-8859-1"?>
<!-- Generator: Adobe Illustrator 19.0.0, SVG Export Plug-In . SVG Version: 6.00 Build 0)  -->
<svg version="1.1" id="Layer_1" xmlns="http://www.w3.org/2000/svg" xmlns:xlink="http://www.w3.org/1999/xlink" x="0px" y="0px"
	 viewBox="0 0 495 495" style="enable-background:new 0 0 495 495;" xml:space="preserve">
<g>
	<path style="fill:#FFEB99;" d="M207.5,274.237c0-22.056,17.944-40,40-40V118.946h-89.462L87.421,255.788l6.904,9.895
		C137.29,327.256,160,399.637,160,475v20h67.5V308.856C215.556,301.929,207.5,289.01,207.5,274.237z"/>
	<path style="fill:#FFC477;" d="M336.962,118.946H247.5v115.291c22.056,0,40,17.944,40,40c0,14.773-8.056,27.692-20,34.619V495H335
		v-20c0-75.363,22.71-147.744,65.674-209.318l6.904-9.895L336.962,118.946z"/>
	<polygon style="fill:#D80027;" points="247.5,0 110.459,0 158.038,118.946 247.5,118.946 	"/>
	<polygon style="fill:#C70024;" points="336.962,118.946 384.541,0 247.5,0 247.5,118.946 	"/>
	<path style="fill:#EE8700;" d="M247.5,314.237c-7.283,0-14.112-1.966-20-5.381V495h40V308.856
		C261.612,312.271,254.783,314.237,247.5,314.237z"/>
	<path style="fill:#CC7400;" d="M207.5,274.237c0,14.773,8.056,27.692,20,34.619c5.888,3.415,12.717,5.381,20,5.381
		s14.112-1.966,20-5.381c11.944-6.927,20-19.846,20-34.619c0-22.056-17.944-40-40-40S207.5,252.181,207.5,274.237z"/>
</g>
<g>
</g>
<g>
</g>
<g>
</g>
<g>
</g>
<g>
</g>
<g>
</g>
<g>
</g>
<g>
</g>
<g>
</g>
<g>
</g>
<g>
</g>
<g>
</g>
<g>
</g>
<g>
</g>
<g>
</g>
</svg>
