<?xml version="1.0" encoding="iso-8859-1"?>
<!-- Generator: Adobe Illustrator 19.0.0, SVG Export Plug-In . SVG Version: 6.00 Build 0)  -->
<svg version="1.1" id="Layer_1" xmlns="http://www.w3.org/2000/svg" xmlns:xlink="http://www.w3.org/1999/xlink" x="0px" y="0px"
	 viewBox="0 0 495 495" style="enable-background:new 0 0 495 495;" xml:space="preserve">
<g>
	<path style="fill:none;" d="M40,455h415V40H40V455z M279.405,85c26.191,0,47.5,21.309,47.5,47.5s-21.309,47.5-47.5,47.5
		s-47.5-21.309-47.5-47.5S253.214,85,279.405,85z M85,323.465l96.238-101.543l99.003,70.75l71.117-41.368L410,313.18V410H85V323.465
		z"/>
	<path style="fill:#D80027;" d="M279.405,180c26.191,0,47.5-21.309,47.5-47.5S305.597,85,279.405,85s-47.5,21.309-47.5,47.5
		S253.214,180,279.405,180z"/>
	<polygon style="fill:#CC7400;" points="410,410 410,313.18 351.358,251.304 351.358,410 	"/>
	<polygon style="fill:#CC7400;" points="280.241,410 280.241,292.672 181.238,221.922 181.238,410 	"/>
	<polygon style="fill:#EE8700;" points="351.358,410 351.358,251.304 280.241,292.672 280.241,410 	"/>
	<polygon style="fill:#EE8700;" points="181.238,221.922 85,323.465 85,410 181.238,410 	"/>
	<polygon style="fill:#8034AD;" points="247.5,0 247.5,40 455,40 455,455 247.5,455 247.5,495 495,495 495,0 	"/>
	<polygon style="fill:#A258CD;" points="40,455 40,40 247.5,40 247.5,0 0,0 0,495 247.5,495 247.5,455 	"/>
</g>
<g>
</g>
<g>
</g>
<g>
</g>
<g>
</g>
<g>
</g>
<g>
</g>
<g>
</g>
<g>
</g>
<g>
</g>
<g>
</g>
<g>
</g>
<g>
</g>
<g>
</g>
<g>
</g>
<g>
</g>
</svg>
