<?xml version="1.0" encoding="iso-8859-1"?>
<!-- Generator: Adobe Illustrator 19.0.0, SVG Export Plug-In . SVG Version: 6.00 Build 0)  -->
<svg version="1.1" id="Layer_1" xmlns="http://www.w3.org/2000/svg" xmlns:xlink="http://www.w3.org/1999/xlink" x="0px" y="0px"
	 viewBox="0 0 504.559 504.559" style="enable-background:new 0 0 504.559 504.559;" xml:space="preserve">
<g>
	<polygon style="fill:#A258CD;" points="504.559,380.077 440.66,316.179 380.556,376.282 352.271,347.998 412.375,287.894 
		376.26,251.78 252.517,375.523 380.815,503.821 	"/>
	<polygon style="fill:#A258CD;" points="217.403,92.921 157.298,153.025 129.014,124.741 189.118,64.637 125.219,0.738 
		1.476,124.482 128.773,251.78 252.517,128.036 	"/>
	
		<rect x="130.708" y="88.831" transform="matrix(-0.7071 0.7071 -0.7071 -0.7071 372.6403 63.3092)" style="fill:#8034AD;" width="85" height="40"/>
	
		<rect x="353.966" y="312.088" transform="matrix(-0.7071 0.7071 -0.7071 -0.7071 911.6313 286.5662)" style="fill:#8034AD;" width="85" height="40.001"/>
	<polygon style="fill:#FFDE55;" points="348.824,155.472 348.824,155.472 348.824,155.472 286.953,93.601 252.517,128.036 
		128.773,251.78 49.956,330.597 111.827,392.469 	"/>
	<polygon style="fill:#FFC477;" points="410.696,217.344 410.696,217.344 410.696,217.344 348.824,155.472 111.827,392.469 
		173.699,454.341 	"/>
	<polygon style="fill:#FFEB99;" points="49.956,330.597 0,504.296 173.699,454.341 	"/>
	<polygon style="fill:#D80027;" points="442.162,62.134 504.034,124.006 380.291,0.263 286.953,93.601 348.824,155.472 	"/>
	<polygon style="fill:#D80027;" points="410.696,217.344 410.696,217.344 369.448,176.096 	"/>
	<polygon style="fill:#C70024;" points="348.824,155.472 348.824,155.472 348.824,155.472 410.696,217.344 410.696,217.344 
		504.034,124.006 442.162,62.134 	"/>
</g>
<g>
</g>
<g>
</g>
<g>
</g>
<g>
</g>
<g>
</g>
<g>
</g>
<g>
</g>
<g>
</g>
<g>
</g>
<g>
</g>
<g>
</g>
<g>
</g>
<g>
</g>
<g>
</g>
<g>
</g>
</svg>
